PathFileType	4	(X/Y/Z)	G:\マイドライブ\biomec\experimentalData\240725\CJ1.trc
DataRate	CameraRate	NumFrames	NumMarkers	Units	OrigDataRate	OrigDataStartFrame	OrigNumFrames
200.00	200.00	      6	52	mm	200.00	396	      1582
Frame#	Time	handR			wrRI			wrRO			elbRI			elbRO			shRF			shRU			shRB			handL			wrLI			wrLO			elbLI			elbLO			shLF			shLU			shLB			toeR			baRI			baRO			heelR			anRI			anRO			knRI			knRO			troR			toeL			baLI			baLO			heelL			anLI			anLO			knLI			knLO			troL			head			earR			earL			clav			c7			ribR			ribL			xiph			ASISR			ASISL			PSISR			PSISL			t8			t11			L1			L3			LS			COX			
		X1	Y1	Z1	X2	Y2	Z2	X3	Y3	Z3	X4	Y4	Z4	X5	Y5	Z5	X6	Y6	Z6	X7	Y7	Z7	X8	Y8	Z8	X9	Y9	Z9	X10	Y10	Z10	X11	Y11	Z11	X12	Y12	Z12	X13	Y13	Z13	X14	Y14	Z14	X15	Y15	Z15	X16	Y16	Z16	X17	Y17	Z17	X18	Y18	Z18	X19	Y19	Z19	X20	Y20	Z20	X21	Y21	Z21	X22	Y22	Z22	X23	Y23	Z23	X24	Y24	Z24	X25	Y25	Z25	X26	Y26	Z26	X27	Y27	Z27	X28	Y28	Z28	X29	Y29	Z29	X30	Y30	Z30	X31	Y31	Z31	X32	Y32	Z32	X33	Y33	Z33	X34	Y34	Z34	X35	Y35	Z35	X36	Y36	Z36	X37	Y37	Z37	X38	Y38	Z38	X39	Y39	Z39	X40	Y40	Z40	X41	Y41	Z41	X42	Y42	Z42	X43	Y43	Z43	X44	Y44	Z44	X45	Y45	Z45	X46	Y46	Z46	X47	Y47	Z47	X48	Y48	Z48	X49	Y49	Z49	X50	Y50	Z50	X51	Y51	Z51	X52	Y52	Z52	

396	1.975	444.01062	718.36877	1052.73462	374.13611	674.44318	1072.97339	381.72275	738.16010	1109.87976	258.13092	699.27875	1293.59729	275.82126	620.61957	1292.74695	580.06085	686.67609	1360.42090	480.23282	705.34900	1416.30249	536.43604	677.45691	1411.80359	574.25311	1146.39746	1042.73352	528.60364	1212.19775	1088.91296	523.38873	1137.41895	1110.59460	443.88263	1198.57764	1312.44519	504.11459	1255.34106	1322.51123	688.08313	999.98828	1388.54663	655.63641	1033.66052	1440.98633	578.65796	1037.57690	1430.60571	667.81384	743.38208	50.35927	587.30518	793.93085	36.26804	559.87970	669.32318	39.86142	382.01639	767.63342	39.78755	469.97610	801.45093	108.32462	447.59238	708.17261	104.23981	523.45007	846.12402	466.06689	524.51868	739.83582	479.15305	472.17145	771.92651	869.87915	646.31494	1164.50378	56.89038	565.44995	1145.30176	79.43015	586.92181	1256.36072	94.80427	400.80801	1260.57886	164.23450	497.21692	1167.00647	202.54601	502.97495	1262.64148	203.60854	639.32916	1039.42310	504.24261	678.97717	1143.71631	529.37952	563.22766	1106.49585	895.24640	802.69153	774.74384	1605.07239	702.53033	726.30316	1451.52515	759.77948	874.04346	1449.56897	656.02686	841.41785	1348.85205	586.66046	858.95209	1473.32764	537.31079	799.87488	1082.11707	596.60553	1014.81403	1100.15027	638.58362	865.90137	1195.24146	552.63611	811.32855	952.83313	599.40356	1024.64063	987.04602	400.34576	895.72546	1010.49805	431.26630	1011.90936	1026.16406	450.06894	922.06525	1293.88940	431.59558	936.45599	1163.40747	432.29431	943.38452	1102.61023	423.07034	946.73969	1051.60400	404.72385	957.80322	1013.36212	370.87451	980.51984	909.95691	
397	1.980	445.32257	718.14362	1054.70068	375.84473	673.02295	1073.79907	382.82352	736.54364	1111.28357	257.82385	695.06232	1293.56714	276.08643	616.44073	1292.31970	579.87463	684.59601	1360.53296	479.92038	702.60352	1416.43005	536.14111	674.89795	1411.99805	573.62720	1142.83447	1046.07458	527.70032	1209.06689	1091.37988	522.31036	1134.42188	1113.52551	442.05014	1196.62817	1314.66882	502.48907	1253.49622	1324.60107	687.08453	998.37506	1389.91602	654.16852	1031.29773	1441.70288	577.04572	1035.04614	1431.64539	667.78955	743.39148	50.39563	587.08789	793.91724	36.12206	559.88867	669.33173	39.83855	381.99799	767.57532	39.75578	469.92636	801.15741	108.47034	447.55423	707.90747	104.12990	522.91077	845.06702	466.32727	524.18268	738.59991	479.16089	472.63184	769.60950	870.27728	646.55798	1156.83813	57.60396	565.80896	1137.87012	79.19530	586.30603	1248.86279	93.18414	399.63379	1253.22327	161.64188	496.74582	1160.85608	202.08441	501.75391	1256.53357	201.79121	639.16998	1036.73914	504.92242	677.37335	1142.11829	529.49139	561.57312	1104.92346	895.52338	801.80481	772.73145	1605.73108	702.08936	724.30133	1451.83569	758.65796	872.38934	1450.29724	655.33466	839.56201	1349.43384	585.50385	856.49609	1473.95264	537.71301	797.73260	1082.29272	595.76257	1012.99658	1100.62891	638.18054	864.02905	1195.87964	552.57330	809.51910	952.51923	598.81018	1022.55054	987.84656	399.72043	893.09125	1010.38483	430.43326	1009.35815	1026.31360	449.18680	919.20355	1294.12207	431.01743	933.79987	1163.67529	431.65448	940.74146	1103.00134	422.63669	944.06085	1051.83789	403.59473	955.60712	1013.96149	370.17139	977.61731	910.21313	
398	1.985	446.47015	718.51337	1055.32788	377.51920	672.10266	1074.30945	383.77078	734.96967	1112.50330	257.90649	691.02924	1293.43140	276.81339	612.49500	1291.66479	579.99207	682.18213	1360.73889	479.57910	699.59265	1416.69849	536.19348	671.95233	1412.28638	572.68726	1139.56030	1049.02014	526.93042	1206.01086	1093.72131	521.19971	1131.53894	1116.36829	440.27869	1194.76294	1316.80444	501.01956	1251.55774	1326.64258	685.24994	996.35706	1391.04077	652.56451	1029.12756	1442.75220	575.46582	1032.72229	1432.46179	667.74506	743.38281	50.46390	587.05865	793.90515	36.15960	559.88629	669.33289	39.80671	382.01022	767.52588	39.74031	469.89465	800.94409	108.59732	447.50549	707.66132	104.04111	522.41779	843.78418	466.36902	523.73773	737.28827	479.11377	473.16150	767.47827	870.45544	647.00244	1149.40625	58.09000	566.29712	1129.96985	80.63456	585.98773	1241.60364	91.77464	398.81406	1245.87854	159.18474	496.41580	1154.73975	201.52931	500.64862	1250.61108	199.66544	638.90057	1034.29309	505.59534	676.04352	1140.07605	529.66718	560.18829	1103.12854	895.84955	800.62701	770.84955	1606.34790	701.47833	722.28021	1452.32861	757.51721	870.69873	1451.14563	654.77484	837.49634	1350.12183	584.30225	854.11371	1474.48645	537.98914	795.81592	1082.56982	594.71185	1011.61951	1101.30920	637.77747	862.26691	1196.60010	553.20020	807.82825	953.24811	597.90289	1021.01404	988.46948	399.87802	890.30511	1010.90186	429.43695	1006.85400	1026.59619	448.26755	916.54224	1294.33105	430.67755	931.09796	1163.64880	431.28448	938.14777	1103.08044	422.02774	941.46252	1052.05896	402.71011	952.44910	1013.84827	369.74771	974.65930	910.23492	
399	1.990	448.13760	717.89648	1057.61646	379.27148	670.91382	1074.81433	384.61206	733.57727	1113.73804	257.89273	687.04230	1293.28076	277.61240	608.56226	1290.93823	579.84418	680.21948	1361.01733	479.73419	697.16840	1416.25916	536.17798	669.98755	1412.48254	572.12115	1135.88965	1052.01587	526.10620	1202.90991	1095.83997	520.14325	1128.53894	1119.07764	438.72339	1193.05786	1318.67383	499.27341	1249.82690	1328.57349	684.21936	994.71887	1391.97168	650.70544	1027.26062	1444.23254	573.66357	1030.38928	1433.27527	667.70947	743.38470	50.52853	587.00739	793.90149	36.22408	559.97528	669.83508	39.21641	381.99146	767.48798	39.77417	469.89536	800.72491	108.67675	447.39279	707.38892	103.99580	521.94812	842.63623	466.62680	523.40936	736.18115	479.07880	473.70633	765.25635	870.66046	647.61957	1142.73816	58.93298	566.99121	1122.85950	80.76318	585.88934	1234.90686	90.35376	398.10394	1238.45032	156.42548	496.17197	1148.81812	201.02547	499.59467	1244.86108	197.69936	638.49347	1032.03394	505.97928	674.40747	1138.34253	529.68555	558.76129	1101.55957	896.18616	799.88110	769.28296	1606.97339	700.85632	720.55865	1452.78162	756.56647	869.08069	1452.09644	654.10797	835.59229	1350.85022	583.10645	851.91351	1475.04419	538.29565	793.88342	1082.81128	593.86011	1010.19061	1101.90027	637.41003	860.78186	1197.17346	553.69489	805.88867	953.95892	596.99207	1020.27747	988.45880	400.12662	887.77649	1011.59052	428.54501	1004.39252	1026.93286	447.28946	913.98779	1294.55408	429.68042	928.57092	1164.11023	430.56186	935.61151	1103.50171	421.50204	938.96478	1052.38721	402.18466	949.59418	1014.22260	369.18097	971.79736	910.42456	
400	1.995	449.19556	718.37469	1058.45789	381.26376	669.94073	1075.11572	385.81448	732.49011	1114.77380	258.12885	683.03949	1292.74597	278.40506	604.79437	1290.01831	580.04462	677.74518	1361.51147	479.54492	694.46564	1416.26831	536.14740	667.49139	1412.68787	571.25977	1132.46887	1054.74219	525.05914	1199.69409	1097.99927	519.14801	1125.57910	1121.49609	436.99072	1191.30518	1320.40906	497.62338	1248.10242	1330.20996	682.30975	992.89459	1393.22449	649.08881	1025.15918	1444.85010	572.02252	1028.05322	1434.17102	667.66437	743.40540	50.61887	586.99548	793.87878	36.25101	559.95386	669.83887	39.20695	381.96149	767.44897	39.78418	469.86087	800.47784	108.75696	447.36954	707.07434	103.88261	521.30884	841.47870	466.86798	523.16467	734.99274	479.11679	474.04910	763.05670	870.93524	648.81348	1136.39465	59.61126	568.26178	1115.94250	81.30669	585.78076	1228.60608	89.26661	397.64374	1231.23840	153.72226	496.02701	1142.97778	200.12506	498.64795	1239.23547	195.72490	637.70770	1029.92517	506.50818	672.93140	1136.42981	529.74225	557.45831	1100.07788	896.43402	798.89594	767.25427	1607.76001	700.36310	719.16937	1453.27319	755.33441	867.57184	1453.02869	653.47229	834.13184	1351.56897	581.98486	849.61951	1475.57043	538.41711	792.04730	1083.24158	592.86121	1008.32678	1102.30786	637.09253	859.06097	1197.94006	554.15778	804.07159	954.45386	596.79761	1017.99384	989.24591	400.16815	885.07294	1012.04346	427.77917	1001.92224	1027.09778	446.57593	911.20178	1294.79443	429.19818	925.96893	1164.20142	428.95850	933.18750	1103.87012	420.93799	936.36676	1052.61548	401.50275	946.95721	1014.43744	368.59818	968.94757	910.59735	
401	2.000	450.98608	718.36224	1059.49377	383.15085	669.14795	1075.47681	387.01266	730.98413	1115.72913	258.43829	679.23315	1292.18140	279.21927	601.15100	1288.99768	579.96979	676.04303	1361.71301	479.39185	691.96100	1416.15601	536.09064	665.28693	1412.88464	570.64050	1129.04272	1057.38391	524.20496	1196.75330	1099.85083	518.44604	1122.64441	1124.11353	435.50266	1189.46997	1322.13525	496.36197	1246.39282	1331.73303	682.02466	992.83746	1394.94727	647.35187	1023.37964	1445.96741	570.44739	1025.88171	1434.98254	667.61621	743.40662	50.69054	586.93671	793.87933	36.32182	559.92328	669.84521	39.19409	381.96411	767.39960	39.79169	469.75305	800.21204	108.85558	447.31931	706.97510	103.54595	520.90741	840.33759	467.14764	523.01031	735.22205	478.56265	474.54462	760.93829	871.21338	649.94110	1130.50452	60.43774	569.24445	1109.88428	81.71548	585.66016	1222.30615	87.57650	396.91537	1224.66589	151.03197	495.99316	1137.49561	199.20380	498.17111	1233.40466	194.28391	637.62170	1026.70813	506.71860	671.38556	1134.27661	529.70605	555.96863	1098.13831	896.69830	797.94269	765.68219	1608.63501	699.62775	717.33313	1453.78540	754.40027	866.11121	1453.97791	652.76917	832.40924	1352.41699	580.80829	847.66345	1476.16638	538.77319	789.95959	1083.61926	591.13031	1006.77332	1103.52271	636.72430	857.62524	1198.67065	554.51807	802.25305	954.77728	595.34943	1017.07086	989.24371	399.33453	882.42834	1011.71033	426.91409	999.57343	1027.34363	445.70084	908.73090	1295.06140	428.50204	923.44061	1164.52783	428.42703	930.72699	1104.01123	420.37973	934.02722	1052.97717	401.28867	944.16705	1014.63007	368.06818	966.17828	910.67432	
